<?xml version="1.0" standalone="no"?>
<!DOCTYPE svg PUBLIC "-//W3C//DTD SVG 20010904//EN"
 "http://www.w3.org/TR/2001/REC-SVG-20010904/DTD/svg10.dtd">
<svg version="1.0" xmlns="http://www.w3.org/2000/svg"
 width="260.000000pt" height="260.000000pt" viewBox="0 0 260.000000 260.000000"
 preserveAspectRatio="xMidYMid meet">
<metadata>
Created by potrace 1.11, written by Peter Selinger 2001-2013
</metadata>
<g transform="translate(0.000000,260.000000) scale(0.100000,-0.100000)"
fill="#000000" stroke="none">
<path d="M1195 2024 c-6 -1 -43 -10 -84 -19 -92 -21 -146 -44 -219 -92 -153
-102 -266 -265 -302 -438 -18 -83 -16 -246 4 -330 9 -38 36 -108 59 -155 55
-112 186 -247 294 -303 241 -126 538 -103 753 56 318 236 390 681 160 992
-100 134 -241 229 -403 269 -58 15 -230 28 -262 20z"/>
</g>
</svg>
