<?xml version="1.0" encoding="utf-8"?>
<!-- Generator: Adobe Illustrator 19.0.0, SVG Export Plug-In . SVG Version: 6.00 Build 0)  -->
<svg version="1.1" id="codesk" xmlns="http://www.w3.org/2000/svg" xmlns:xlink="http://www.w3.org/1999/xlink" x="0px" y="0px"
	 viewBox="0 0 540.5 112.6" style="enable-background:new 0 0 540.5 112.6;" xml:space="preserve">
<style type="text/css">
	.st0{fill:#333333;}
</style>
<g id="XMLID_2_">
	<path id="XMLID_3_" class="st0" d="M40.7,112.5c-11.1,0-20.7-3.8-28.6-11.3C4,93.6,0,83.8,0,71.6c0-12.2,4.2-22.1,12.5-29.8
		c8.3-7.6,18.5-11.5,30.5-11.5s22.1,4.2,30.4,12.5l-9.9,12.1c-6.9-6-13.9-9-20.9-9c-7,0-13.1,2.3-18.2,7c-5.2,4.6-7.7,10.6-7.7,18
		c0,7.3,2.5,13.6,7.6,18.7c5.1,5.1,11.4,7.6,18.8,7.6c7.4,0,14.5-3.4,21.1-10.2l9.9,10.8C64.6,107.6,53.4,112.5,40.7,112.5z"/>
	<path id="XMLID_5_" class="st0" d="M153.8,100.6c-8,8-18,11.9-30,11.9s-22-4-30-11.9c-8-7.9-12-17.7-12-29.2c0-11.5,4-21.2,12-29.2
		c8-7.9,18-11.9,30-11.9s22,4,30,11.9c8,8,12,17.7,12,29.2C165.8,82.9,161.8,92.6,153.8,100.6z M105.7,90.2
		c4.7,4.9,10.8,7.3,18.1,7.3c7.3,0,13.3-2.4,18.1-7.3c4.7-4.8,7.1-11.1,7.1-18.8c0-7.7-2.4-14-7.1-18.8c-4.8-4.8-10.8-7.3-18.1-7.3
		c-7.3,0-13.3,2.4-18.1,7.3c-4.8,4.9-7.1,11.1-7.1,18.8C98.6,79.1,100.9,85.4,105.7,90.2z"/>
	<path id="XMLID_8_" class="st0" d="M185,101.1c-7.5-7.6-11.2-17.6-11.2-30c0-12.4,3.8-22.3,11.6-29.7c7.7-7.4,16.9-11.1,27.5-11.1
		s19.2,4.5,25.7,13.5V0h16.8v111.3h-16.8v-12c-6.2,8.8-15.3,13.2-27.1,13.2C201.3,112.5,192.5,108.7,185,101.1z M190.5,71.8
		c0,7.7,2.4,13.9,7.4,18.7c4.9,4.8,10.6,7.2,17.2,7.2c6.6,0,12.2-2.4,16.8-7.3c4.6-4.8,6.9-11.1,6.9-18.7c0-7.6-2.3-13.9-6.9-19
		c-4.6-5.1-10.3-7.6-17-7.6c-6.7,0-12.4,2.5-17.2,7.6C192.9,57.8,190.5,64.1,190.5,71.8z"/>
	<path id="XMLID_11_" class="st0" d="M347.9,78.8h-62.6c0.4,5.8,3.1,10.5,8,14c4.9,3.6,10.5,5.3,16.8,5.3c10,0,17.6-3.2,22.8-9.5
		l9.6,10.5c-8.6,8.9-19.8,13.4-33.6,13.4c-11.2,0-20.7-3.7-28.6-11.2c-7.9-7.4-11.8-17.4-11.8-30c0-12.5,4-22.5,12-29.9
		c8-7.4,17.4-11.1,28.3-11.1c10.8,0,20.1,3.3,27.7,9.8c7.6,6.6,11.4,15.6,11.4,27.1V78.8z M285.3,65.6h45.8c0-6.7-2.1-11.9-6.3-15.5
		c-4.2-3.6-9.4-5.4-15.5-5.4s-11.7,1.9-16.6,5.6C287.8,54.1,285.3,59.2,285.3,65.6z"/>
	<path id="XMLID_14_" class="st0" d="M420.2,87.5c0,7.6-2.8,13.7-8.2,18.2c-5.5,4.6-12.6,6.8-21.2,6.8c-5.8,0-11.8-1.1-18.1-3.2
		c-6.3-2.1-11.8-5-16.6-8.8l8.1-13.1c9.3,7,18.3,10.5,27,10.5c3.8,0,6.8-0.9,9-2.6c2.2-1.7,3.3-4,3.3-6.7c0-4-5.3-7.6-15.9-10.8
		c-0.8-0.3-1.4-0.5-1.8-0.6c-16.6-4.5-24.9-12-24.9-22.5c0-7.4,2.9-13.3,8.6-17.8c5.7-4.4,13.2-6.7,22.4-6.7
		c9.2,0,17.9,2.7,26.1,8.1l-6.3,12.4c-6.5-4.3-13.6-6.4-21.1-6.4c-4,0-7.3,0.7-9.8,2.2c-2.5,1.5-3.8,3.6-3.8,6.5
		c0,2.6,1.3,4.5,3.9,5.7c1.8,0.9,4.3,1.8,7.6,2.5c3.2,0.8,6.1,1.6,8.6,2.4c2.5,0.8,4.9,1.7,7.3,2.7c2.3,1,4.9,2.4,7.6,4.2
		C417.5,74.3,420.2,79.9,420.2,87.5z"/>
	<path id="XMLID_16_" class="st0" d="M453,111.3h-16.8V0H453v65.4l32.4-33.9H507l-30.3,31.6l32.5,48.1h-20.4l-23.7-35L453,88.7
		V111.3z"/>
	<path id="XMLID_18_" class="st0" d="M521.3,109.2c-2.2-2.2-3.2-4.8-3.2-7.9c0-3.1,1.1-5.7,3.2-7.9c2.1-2.1,4.8-3.2,7.9-3.2
		c3.1,0,5.7,1.1,8,3.2c2.2,2.2,3.3,4.8,3.3,7.9c0,3.1-1.1,5.8-3.3,7.9c-2.2,2.2-4.9,3.3-8,3.3C526.1,112.5,523.5,111.4,521.3,109.2z
		"/>
</g>
</svg>
